<?xml version="1.0" encoding="UTF-8" standalone="no"?>
<!-- Created with Inkscape (http://www.inkscape.org/) -->

<svg
   width="184.00951mm"
   height="39.82782mm"
   viewBox="0 0 184.00951 39.82782"
   version="1.1"
   id="svg1"
   xml:space="preserve"
   inkscape:version="1.4.3 (0d15f75, 2025-12-25)"
   sodipodi:docname="drawing.svg"
   inkscape:export-filename="1.svg"
   inkscape:export-xdpi="181.42857"
   inkscape:export-ydpi="181.42857"
   xmlns:inkscape="http://www.inkscape.org/namespaces/inkscape"
   xmlns:sodipodi="http://sodipodi.sourceforge.net/DTD/sodipodi-0.dtd"
   xmlns="http://www.w3.org/2000/svg"
   xmlns:svg="http://www.w3.org/2000/svg"><sodipodi:namedview
     id="namedview1"
     pagecolor="#ffffff"
     bordercolor="#000000"
     borderopacity="0.25"
     inkscape:showpageshadow="2"
     inkscape:pageopacity="0.0"
     inkscape:pagecheckerboard="0"
     inkscape:deskcolor="#d1d1d1"
     inkscape:document-units="mm"
     inkscape:zoom="1"
     inkscape:cx="468"
     inkscape:cy="759.5"
     inkscape:window-width="1920"
     inkscape:window-height="1006"
     inkscape:window-x="0"
     inkscape:window-y="0"
     inkscape:window-maximized="1"
     inkscape:current-layer="layer2"><inkscape:page
       x="0"
       y="0"
       width="184.00951"
       height="39.82782"
       id="page2"
       margin="0"
       bleed="0" /></sodipodi:namedview><defs
     id="defs1" /><g
     inkscape:groupmode="layer"
     id="layer2"
     inkscape:label="Layer 2"
     transform="translate(-15.123416,-191.79767)"><g
       id="g6"><path
         id="rect1-1-1"
         style="fill:#d40924;stroke:#000000;stroke-width:0"
         d="M 33.086846,191.79771 H 154.02045 L 142.60964,214.5292 H 21.676038 Z" /><path
         style="font-weight:800;font-size:20.8994px;font-family:'Inter 18pt';-inkscape-font-specification:'Inter 18pt Ultra-Bold';fill:#ffffff;stroke:#000000;stroke-width:0"
         d="m 15.123418,231.42672 6.708153,-14.10208 h 5.996631 l -0.514163,5.49886 q -0.06256,0.50162 -0.214178,1.3061 -0.151615,0.80448 -0.35726,1.72254 -0.205641,0.91805 -0.412773,1.76985 -0.191635,0.84235 -0.354237,1.43861 h -0.803219 q 0.415671,-0.59626 1.00341,-1.43861 0.603249,-0.8518 1.266514,-1.76039 0.678764,-0.91805 1.281509,-1.72254 0.613744,-0.80448 1.032906,-1.31556 l 4.684292,-5.49886 h 6.018627 l -6.708153,14.10208 h -3.906052 l 2.894862,-6.08567 q 0.225106,-0.47322 0.593766,-1.20199 0.373159,-0.73822 0.804849,-1.5995 0.442684,-0.86126 0.878874,-1.73199 0.451692,-0.8802 0.81186,-1.63736 h 0.286084 q -0.600741,0.82341 -1.288013,1.71307 -0.676268,0.88966 -1.341025,1.732 -0.664767,0.84234 -1.244486,1.55218 -0.568717,0.70983 -0.954377,1.17359 l -5.227491,6.08567 h -3.234882 l 0.51822,-6.08567 q 0.05556,-0.46376 0.146647,-1.16413 0.0956,-0.70984 0.232208,-1.55217 0.136623,-0.84234 0.295745,-1.73201 0.159132,-0.88966 0.324256,-1.72253 h 0.341084 q -0.351164,0.73823 -0.747867,1.61843 -0.381201,0.87073 -0.7734,1.74146 -0.376697,0.86127 -0.705869,1.5995 -0.329168,0.73823 -0.554275,1.21145 l -2.894862,6.08567 z m 20.267512,0 12.209645,-14.10208 h 5.20441 l -1.063614,14.10208 h -4.379196 l 0.66877,-6.17084 q 0.194693,-1.54271 0.483438,-3.23686 0.293234,-1.70361 0.663015,-3.56811 h 0.913251 q -1.404062,1.8645 -2.698573,3.56811 -1.283513,1.70361 -2.541002,3.23686 l -5.146979,6.17084 z m 5.136667,-2.934 1.224575,-2.57433 h 8.857415 l -1.224575,2.57433 z m 19.140411,3.13276 q -2.222608,0 -3.582401,-0.84235 -1.355282,-0.8518 -1.608703,-2.47023 -0.242412,-1.61843 0.856101,-3.92776 1.107522,-2.32826 2.900668,-3.94669 1.804144,-1.61843 3.965302,-2.46076 2.165673,-0.85181 4.366274,-0.85181 1.463391,0 2.546657,0.35965 1.087759,0.35018 1.725373,1.02216 0.637614,0.67198 0.783558,1.63736 0.145944,0.96538 -0.263278,2.19576 h -3.939067 q 0.153031,-0.53001 0.0761,-0.94645 -0.07248,-0.4259 -0.351028,-0.7193 -0.278545,-0.2934 -0.75666,-0.44483 -0.473615,-0.1609 -1.133798,-0.1609 -1.210321,0 -2.333683,0.51108 -1.112343,0.51109 -2.044693,1.47647 -0.921341,0.96538 -1.569646,2.32826 -0.661809,1.39128 -0.647893,2.35666 0.01841,0.95591 0.653538,1.44806 0.635127,0.49216 1.834452,0.49216 0.660182,0 1.271359,-0.15144 0.626686,-0.16089 1.195372,-0.45429 0.568676,-0.2934 1.041844,-0.70984 0.477668,-0.4259 0.83532,-0.94645 h 3.939066 q -0.598255,1.00324 -1.589613,1.93076 -0.98035,0.92752 -2.271275,1.67522 -1.275413,0.73822 -2.780869,1.17359 -1.489947,0.42591 -3.11838,0.42591 z m 9.381068,-0.19876 6.708153,-14.10208 h 3.895054 l -2.624734,5.51779 h 6.480762 l 2.624734,-5.51779 h 3.895054 l -6.708153,14.10208 h -3.895054 l 2.768805,-5.82066 h -6.480763 l -2.768804,5.82066 z m 22.005978,0 2.426641,-5.10136 -1.803145,-9.00072 h 4.544238 l 0.550743,4.27794 q 0.07497,0.60572 0.07941,1.22092 0.0089,0.60572 -0.05214,1.38181 h -0.693187 q 0.670754,-0.78555 1.233967,-1.39128 0.57871,-0.61519 1.214445,-1.21145 l 4.499624,-4.27794 h 4.52224 l -10.234139,9.00072 -2.426641,5.10136 z m 11.465106,0 6.70816,-14.10208 h 4.22515 l 1.55382,6.37906 q 0.13698,0.56787 0.23994,1.23038 0.10748,0.65305 0.14741,1.44807 0.0444,0.78555 0.003,1.75093 l -0.48415,0.20822 q 0.29868,-0.76663 0.67836,-1.70362 0.39071,-0.93698 0.76542,-1.81717 0.3747,-0.8802 0.65384,-1.467 l 2.86784,-6.02887 h 3.97208 l -6.70815,14.10208 h -4.23615 l -1.43183,-5.84905 q -0.16397,-0.71931 -0.28844,-1.42914 -0.11998,-0.71931 -0.20342,-1.56164 -0.0679,-0.8518 -0.15535,-1.94022 l 0.54413,-0.0568 q -0.40023,1.00323 -0.7889,1.95915 -0.38872,0.95591 -0.72941,1.74146 -0.34067,0.78555 -0.57929,1.28717 l -2.78231,5.84906 z m 21.30706,-2.76363 1.52171,-3.199 q 0.86881,-0.78555 1.65709,-1.44806 0.80378,-0.67198 1.69559,-1.34396 0.90731,-0.68145 2.0427,-1.49539 l 5.48534,-3.85204 h 4.66527 l -10.24645,7.0605 -0.31156,-0.0852 z m -4.21942,2.76363 6.70816,-14.10208 h 3.89506 l -1.64777,3.464 -1.86935,3.81419 -0.71937,1.62789 -2.47166,5.196 z m 10.24379,0 -1.55085,-6.03835 3.61121,-2.47969 2.50588,8.51804 z"
         id="text1-94-5"
         aria-label="MACHYNK" /><path
         style="font-size:58.714px;font-family:'Inter 18pt';-inkscape-font-specification:'Inter 18pt';fill:#ffffff;stroke:#000000;stroke-width:0"
         d="m 136.95444,231.41554 19.5058,-39.61788 h 6.67686 l 14.18763,39.61788 h -6.12046 l -8.11732,-23.5846 q -0.77395,-2.23349 -1.76036,-5.4242 -0.95368,-3.21728 -2.30867,-8.24264 h 1.20555 q -2.04709,5.05195 -3.50816,8.32241 -1.42833,3.24388 -2.4072,5.34443 l -11.2023,23.5846 z m 9.2603,-11.0611 0.30131,-4.38722 h 23.39993 l -0.30131,4.38722 z"
         id="text1-9-8-5"
         aria-label="A" /><path
         id="rect2-5-4"
         style="fill:#ffffff;stroke:#000000;stroke-width:0"
         d="m 165.59052,191.7977 8.67609,22.73142 h 1.55532 l -8.67609,-22.73142 z" /><path
         id="rect3-0-7"
         style="fill:#ffffff;stroke:#000000;stroke-width:0"
         d="m 174.29008,213.05146 h 24.84286 v 1.47765 h -24.84286 z" /><path
         style="font-weight:800;font-size:7.36095px;font-family:'Inter 18pt';-inkscape-font-specification:'Inter 18pt Ultra-Bold';fill:#ffffff;stroke:#000000;stroke-width:0"
         d="m 177.76444,212.17575 q -0.73245,0 -1.18073,-0.19001 -0.44441,-0.19001 -0.55818,-0.57003 -0.11217,-0.38334 0.14965,-0.95003 h 1.31374 q -0.0948,0.24001 -0.0369,0.40335 0.0579,0.16334 0.25311,0.25001 0.19673,0.0834 0.51064,0.0834 0.28678,0 0.52389,-0.0667 0.24258,-0.07 0.41204,-0.19 0.17334,-0.12001 0.24787,-0.27668 0.0682,-0.14334 0.0112,-0.24335 -0.0517,-0.10334 -0.22439,-0.18001 -0.17279,-0.0767 -0.4682,-0.14 l -0.54906,-0.11667 q -0.70143,-0.14667 -0.96756,-0.48335 -0.26455,-0.34002 2.6e-4,-0.89671 0.22041,-0.46335 0.67051,-0.8067 0.45556,-0.34668 1.0552,-0.54003 0.59964,-0.19333 1.25845,-0.19333 0.67431,0 1.07293,0.19667 0.40408,0.19334 0.50726,0.54669 0.10866,0.35001 -0.10489,0.82337 h -1.30986 q 0.10602,-0.28001 -0.0558,-0.43668 -0.15798,-0.15668 -0.57265,-0.15668 -0.26739,0 -0.48742,0.0633 -0.22002,0.0633 -0.37082,0.17667 -0.14926,0.11 -0.21744,0.25334 -0.0698,0.14668 -0.0181,0.25001 0.0554,0.10334 0.21435,0.17668 0.16433,0.07 0.41184,0.12 l 0.45392,0.0967 q 0.39598,0.08 0.66355,0.21 0.27145,0.13001 0.41059,0.31001 0.14302,0.18001 0.14511,0.42002 0.004,0.23668 -0.13746,0.53336 -0.22516,0.47336 -0.66364,0.8167 -0.43848,0.34335 -1.04111,0.52669 -0.60104,0.18 -1.32185,0.18 z m 3.89085,0 q -0.31003,0 -0.43755,-0.18 -0.12364,-0.18001 0.002,-0.44336 0.12528,-0.26335 0.42017,-0.44335 0.29877,-0.18001 0.6088,-0.18001 0.31003,0 0.43366,0.18001 0.12753,0.18 0.002,0.44335 -0.12527,0.26335 -0.42405,0.44336 -0.29488,0.18 -0.60491,0.18 z m 1.78109,-0.07 2.36267,-4.96687 h 2.36783 q 0.65494,0 1.03101,0.20333 0.38152,0.20002 0.4597,0.57336 0.0836,0.37002 -0.15897,0.88004 -0.24261,0.51002 -0.67898,0.87337 -0.43477,0.36001 -1.01345,0.55002 -0.5748,0.19001 -1.24524,0.19001 h -1.49589 l 0.444,-0.93337 h 1.29824 q 0.31391,0 0.56195,-0.0734 0.24963,-0.0767 0.42948,-0.22668 0.18532,-0.15334 0.29315,-0.38002 0.10941,-0.23001 0.07,-0.38335 -0.0356,-0.15334 -0.21065,-0.23334 -0.17507,-0.08 -0.48899,-0.08 h -0.74793 l -1.906,4.00684 z m 3.18553,0 -0.30681,-2.26342 h 1.461 l 0.33783,2.26342 z m 2.90808,0.07 q -0.31003,0 -0.43755,-0.18 -0.12363,-0.18001 0.002,-0.44336 0.12527,-0.26335 0.42015,-0.44335 0.29878,-0.18001 0.60881,-0.18001 0.31003,0 0.43367,0.18001 0.12752,0.18 0.002,0.44335 -0.12527,0.26335 -0.42404,0.44336 -0.2949,0.18 -0.60493,0.18 z m 4.01099,0 q -0.77894,0 -1.26175,-0.29668 -0.48122,-0.30001 -0.57436,-0.87004 -0.0892,-0.57002 0.29766,-1.38339 0.38849,-0.8167 1.02005,-1.38672 0.63702,-0.57336 1.40208,-0.87004 0.76665,-0.30001 1.54558,-0.30001 0.77508,0 1.25242,0.30001 0.48281,0.29668 0.57434,0.87004 0.0931,0.57002 -0.29535,1.38672 -0.38691,0.81337 -1.02235,1.38339 -0.63543,0.57003 -1.40207,0.87004 -0.76118,0.29668 -1.53625,0.29668 z m 0.49314,-1.03671 q 0.41855,0 0.80328,-0.17334 0.38632,-0.17668 0.70923,-0.51335 0.32451,-0.34002 0.55602,-0.82671 0.23309,-0.49002 0.23207,-0.83003 -0.001,-0.34002 -0.22084,-0.51336 -0.21824,-0.17667 -0.63678,-0.17667 -0.41854,0 -0.80486,0.17667 -0.38473,0.17334 -0.71311,0.51336 -0.32451,0.34001 -0.5576,0.83003 -0.23151,0.48669 -0.23049,0.82671 0.006,0.33667 0.22473,0.51335 0.21982,0.17334 0.63835,0.17334 z m 3.51397,1.03671 q -0.31003,0 -0.43755,-0.18 -0.12364,-0.18001 0.002,-0.44336 0.12528,-0.26335 0.42017,-0.44335 0.29877,-0.18001 0.6088,-0.18001 0.31003,0 0.43367,0.18001 0.12753,0.18 0.002,0.44335 -0.12526,0.26335 -0.42404,0.44336 -0.29489,0.18 -0.60492,0.18 z"
         id="text1-1-1-6"
         aria-label="S.R.O." /></g></g></svg>
