<?xml version="1.0" encoding="UTF-8" standalone="no"?>
<!-- Created with Inkscape (http://www.inkscape.org/) -->

<svg
   width="184.00952mm"
   height="39.82782mm"
   viewBox="0 0 184.00952 39.82782"
   version="1.1"
   id="svg1"
   xml:space="preserve"
   inkscape:version="1.4.3 (0d15f75, 2025-12-25)"
   sodipodi:docname="drawing.svg"
   inkscape:export-filename="1.svg"
   inkscape:export-xdpi="181.42857"
   inkscape:export-ydpi="181.42857"
   xmlns:inkscape="http://www.inkscape.org/namespaces/inkscape"
   xmlns:sodipodi="http://sodipodi.sourceforge.net/DTD/sodipodi-0.dtd"
   xmlns="http://www.w3.org/2000/svg"
   xmlns:svg="http://www.w3.org/2000/svg"><sodipodi:namedview
     id="namedview1"
     pagecolor="#ffffff"
     bordercolor="#000000"
     borderopacity="0.25"
     inkscape:showpageshadow="2"
     inkscape:pageopacity="0.0"
     inkscape:pagecheckerboard="0"
     inkscape:deskcolor="#d1d1d1"
     inkscape:document-units="mm"
     inkscape:zoom="1"
     inkscape:cx="468"
     inkscape:cy="759.5"
     inkscape:window-width="1920"
     inkscape:window-height="1006"
     inkscape:window-x="0"
     inkscape:window-y="0"
     inkscape:window-maximized="1"
     inkscape:current-layer="layer2"><inkscape:page
       x="0"
       y="0"
       width="184.00952"
       height="39.82782"
       id="page2"
       margin="0"
       bleed="0" /></sodipodi:namedview><defs
     id="defs1" /><g
     inkscape:groupmode="layer"
     id="layer2"
     inkscape:label="Layer 2"
     transform="translate(-29.973686,-206.06612)"><g
       id="g5"><path
         id="rect1-1"
         style="fill:#d40924;stroke:#000000;stroke-width:0"
         transform="matrix(1,0,-0.44863048,0.89371734,0,0)"
         d="m 151.37872,230.57195 h 120.9336 v 25.43476 h -120.9336 z" /><path
         style="font-weight:800;font-size:20.8994px;font-family:'Inter 18pt';-inkscape-font-specification:'Inter 18pt Ultra-Bold';stroke:#000000;stroke-width:0"
         d="m 136.19431,264.91309 v -15.20513 h 5.56161 l 1.94911,5.92898 q 0.16328,0.54085 0.37758,1.40826 0.2143,0.8674 0.4286,1.85727 0.2143,0.98986 0.39799,1.90829 0.19389,0.90823 0.30614,1.55113 h -0.74495 q 0.12246,-0.6429 0.29594,-1.55113 0.18369,-0.91843 0.39799,-1.89809 0.2245,-0.98986 0.4286,-1.85727 0.2143,-0.86741 0.37758,-1.41846 l 1.9185,-5.92898 h 5.58201 v 15.20513 h -3.62269 v -6.56168 q 0,-0.51024 0.0204,-1.29601 0.0204,-0.79597 0.0408,-1.72461 0.0306,-0.92863 0.051,-1.86747 0.0306,-0.94905 0.0306,-1.76543 h 0.26533 q -0.19389,0.88782 -0.43881,1.84706 -0.23471,0.95925 -0.47962,1.86748 -0.24492,0.90823 -0.46942,1.67359 -0.2143,0.76535 -0.36738,1.26539 l -2.16341,6.56168 h -3.00021 l -2.20423,-6.56168 q -0.15307,-0.50004 -0.37758,-1.25519 -0.2245,-0.76536 -0.46942,-1.67358 -0.24491,-0.90823 -0.48983,-1.86748 -0.24491,-0.95925 -0.45921,-1.85727 h 0.31634 q 0,0.79597 0.0204,1.74502 0.0306,0.93884 0.051,1.87768 0.0306,0.92863 0.051,1.72461 0.0204,0.79597 0.0204,1.30621 v 6.56168 z m 18.79722,0 5.10239,-15.20513 h 4.82686 l 5.23506,15.20513 h -4.06151 l -2.10218,-6.65352 q -0.50004,-1.66338 -0.97966,-3.49004 -0.47963,-1.83686 -0.95925,-3.8472 h 0.847 q -0.47963,2.01034 -0.92864,3.8472 -0.43881,1.83686 -0.92864,3.49004 l -2.05116,6.65352 z m 3.46962,-3.16349 v -2.7757 h 8.21486 v 2.7757 z m 19.13398,3.37779 q -2.06137,0 -3.69414,-0.90823 -1.63276,-0.91843 -2.58181,-2.66345 -0.93884,-1.74502 -0.93884,-4.23498 0,-2.51038 0.94905,-4.2554 0.95925,-1.74502 2.59201,-2.65324 1.63277,-0.91843 3.67373,-0.91843 1.35723,0 2.52058,0.38778 1.16334,0.37757 2.05116,1.10211 0.88782,0.72454 1.44908,1.76543 0.56126,1.04089 0.72454,2.36751 h -3.65331 q -0.0919,-0.57147 -0.34697,-1.02048 -0.25512,-0.45921 -0.6429,-0.77556 -0.38778,-0.31635 -0.89802,-0.47963 -0.51024,-0.17348 -1.12253,-0.17348 -1.12252,0 -1.93891,0.55106 -0.80617,0.55106 -1.24498,1.59195 -0.4286,1.04089 -0.4286,2.51038 0,1.5001 0.43881,2.54099 0.4388,1.03068 1.24498,1.56133 0.80618,0.53065 1.9185,0.53065 0.61229,0 1.11232,-0.16328 0.51024,-0.17348 0.90823,-0.48983 0.39798,-0.31635 0.6531,-0.76536 0.25512,-0.45921 0.35717,-1.02048 h 3.65331 q -0.11225,1.08171 -0.62249,2.08178 -0.50003,1.00007 -1.36744,1.80625 -0.8572,0.79597 -2.06137,1.26539 -1.19396,0.45922 -2.70426,0.45922 z m 8.61284,-0.2143 v -15.20513 h 3.61249 v 5.94939 h 6.01062 v -5.94939 h 3.61249 v 15.20513 h -3.61249 v -6.27595 h -6.01062 v 6.27595 z m 20.40957,0 v -5.50038 l -5.64325,-9.70475 h 4.21458 l 2.39812,4.61256 q 0.33676,0.6531 0.61229,1.31642 0.27553,0.6531 0.56126,1.48989 h -0.6429 q 0.27553,-0.84699 0.53065,-1.5001 0.26532,-0.66331 0.59188,-1.30621 l 2.28587,-4.61256 h 4.19417 l -5.52079,9.70475 v 5.50038 z m 10.63338,0 v -15.20513 h 3.91864 l 4.2554,6.87802 q 0.37757,0.61229 0.76535,1.32662 0.38779,0.70413 0.77557,1.56134 0.38778,0.84699 0.77556,1.88788 l -0.35717,0.22451 q -0.0612,-0.82659 -0.12245,-1.83687 -0.051,-1.01027 -0.0918,-1.95931 -0.0408,-0.94905 -0.0408,-1.58175 v -6.50044 h 3.68393 v 15.20513 h -3.92884 l -3.90843,-6.30656 q -0.46942,-0.77557 -0.89802,-1.54092 -0.42861,-0.77557 -0.87762,-1.68379 -0.4388,-0.91843 -1.00006,-2.09198 l 0.47962,-0.0612 q 0.0714,1.0817 0.13266,2.11239 0.0612,1.03068 0.0918,1.87768 0.0306,0.84699 0.0306,1.38785 v 6.30656 z m 18.5421,-2.9798 v -3.44922 q 0.45921,-0.847 0.89802,-1.56133 0.44901,-0.72454 0.97966,-1.44908 0.54085,-0.73475 1.23478,-1.61236 l 3.38798,-4.15334 h 4.32683 l -6.38819,7.61277 -0.32656,-0.0919 z m -2.69407,2.9798 v -15.20513 h 3.6125 v 3.73495 l -0.051,4.11253 0.051,1.75522 v 5.60243 z m 9.50066,0 -4.10233,-6.51066 2.25526,-2.67365 6.08205,9.18431 z"
         id="text1-94"
         transform="matrix(1.0782186,0,-0.44117696,0.92745572,0,0)"
         aria-label="MACHYNK" /><path
         style="font-size:58.714px;font-family:'Inter 18pt';-inkscape-font-specification:'Inter 18pt';stroke:#000000;stroke-width:0"
         d="m 156.44139,264.90103 15.56724,-42.71673 h 6.19249 l 15.68192,42.71673 h -5.67645 l -9.03072,-25.42935 q -0.86007,-2.40819 -1.97816,-5.84847 -1.08942,-3.46894 -2.66621,-8.88737 h 1.11809 q -1.57679,5.4471 -2.72355,8.97338 -1.11809,3.49761 -1.89215,5.76246 l -8.88738,25.42935 z m 7.88396,-11.92628 v -4.73038 h 21.7024 v 4.73038 z"
         id="text1-9-8"
         transform="matrix(1.0782186,0,-0.06369663,0.92745572,0,0)"
         aria-label="A" /><path
         id="rect2-5"
         style="stroke:#000000;stroke-width:0"
         d="m 180.44079,206.06614 8.67609,22.73142 h 1.55532 l -8.67609,-22.73142 z" /><path
         id="rect3-0"
         style="stroke:#000000;stroke-width:0"
         d="m 189.14035,227.3199 h 24.84286 v 1.47765 h -24.84286 z" /><path
         style="font-weight:800;font-size:7.36095px;font-family:'Inter 18pt';-inkscape-font-specification:'Inter 18pt Ultra-Bold';stroke:#000000;stroke-width:0"
         d="m 278.54357,244.15633 q -0.67931,0 -1.1789,-0.20487 -0.496,-0.20487 -0.76917,-0.61461 -0.27316,-0.41333 -0.28034,-1.02435 h 1.21843 q 0.018,0.25879 0.14377,0.4349 0.1258,0.17612 0.34505,0.26957 0.21924,0.0899 0.51038,0.0899 0.26597,0 0.45646,-0.0719 0.19409,-0.0755 0.29832,-0.20487 0.10783,-0.12939 0.10783,-0.29832 0,-0.15455 -0.097,-0.26238 -0.0935,-0.11142 -0.28753,-0.19409 -0.19409,-0.0827 -0.496,-0.15095 l -0.5607,-0.1258 q -0.71525,-0.15814 -1.11061,-0.52116 -0.39537,-0.36661 -0.39537,-0.96684 0,-0.4996 0.26597,-0.8698 0.26957,-0.3738 0.74041,-0.58227 0.47084,-0.20846 1.08186,-0.20846 0.62539,0 1.08186,0.21206 0.46006,0.20846 0.71165,0.58945 0.25519,0.37739 0.26597,0.88777 h -1.21484 q -0.0252,-0.30191 -0.24441,-0.47084 -0.21565,-0.16893 -0.60023,-0.16893 -0.248,0 -0.42412,0.0683 -0.17611,0.0683 -0.26597,0.19049 -0.0899,0.11861 -0.0899,0.27316 0,0.15815 0.0935,0.26957 0.097,0.11142 0.27675,0.19049 0.1833,0.0755 0.4349,0.12939 l 0.46365,0.10424 q 0.40256,0.0863 0.70806,0.22643 0.30911,0.14018 0.51757,0.33426 0.21206,0.19409 0.31989,0.45287 0.10782,0.25519 0.10782,0.57508 0,0.51038 -0.25519,0.88058 -0.25519,0.37021 -0.73322,0.56789 -0.47803,0.19408 -1.14655,0.19408 z m 3.60859,0 q -0.28754,0 -0.48522,-0.19408 -0.19409,-0.19409 -0.19409,-0.47803 0,-0.28395 0.19409,-0.47803 0.19768,-0.19409 0.48522,-0.19409 0.28754,0 0.48162,0.19409 0.19769,0.19408 0.19769,0.47803 0,0.28394 -0.19769,0.47803 -0.19408,0.19408 -0.48162,0.19408 z m 1.62099,-0.0755 v -5.35538 h 2.19606 q 0.60743,0 1.04592,0.21924 0.44209,0.21566 0.67931,0.61821 0.24081,0.39896 0.24081,0.94887 0,0.54992 -0.24441,0.94169 -0.2444,0.38817 -0.69727,0.59304 -0.44928,0.20487 -1.07108,0.20487 h -1.38737 v -1.00638 h 1.20406 q 0.29114,0 0.48882,-0.0791 0.19768,-0.0827 0.29832,-0.24441 0.10423,-0.16533 0.10423,-0.40974 0,-0.248 -0.10423,-0.41333 -0.10064,-0.16534 -0.29832,-0.2516 -0.19768,-0.0863 -0.48882,-0.0863 h -0.69368 v 4.32025 z m 2.95444,0 -1.28313,-2.44047 h 1.35502 l 1.31189,2.44047 z m 2.72801,0.0755 q -0.28754,0 -0.48522,-0.19408 -0.19408,-0.19409 -0.19408,-0.47803 0,-0.28395 0.19408,-0.47803 0.19768,-0.19409 0.48522,-0.19409 0.28754,0 0.48163,0.19409 0.19768,0.19408 0.19768,0.47803 0,0.28394 -0.19768,0.47803 -0.19409,0.19408 -0.48163,0.19408 z m 3.72001,0 q -0.72243,0 -1.3011,-0.31988 -0.57867,-0.32348 -0.91653,-0.93809 -0.33426,-0.61461 -0.33426,-1.4916 0,-0.88058 0.33426,-1.49519 0.33786,-0.61821 0.91653,-0.93809 0.57867,-0.32348 1.3011,-0.32348 0.71885,0 1.29392,0.32348 0.57867,0.31988 0.91652,0.93809 0.33786,0.61461 0.33786,1.49519 0,0.87699 -0.33786,1.4916 -0.33785,0.61461 -0.91652,0.93809 -0.57507,0.31988 -1.29392,0.31988 z m 0,-1.1178 q 0.38818,0 0.66853,-0.18689 0.28035,-0.1905 0.4313,-0.55351 0.15096,-0.36661 0.15096,-0.89137 0,-0.52835 -0.15096,-0.89496 -0.15095,-0.36661 -0.4313,-0.55351 -0.28035,-0.19049 -0.66853,-0.19049 -0.38817,0 -0.66852,0.19049 -0.28035,0.1869 -0.4349,0.55351 -0.15096,0.36661 -0.15096,0.89496 0,0.52476 0.15096,0.89137 0.15455,0.36301 0.4349,0.55351 0.28035,0.18689 0.66852,0.18689 z m 3.71642,1.1178 q -0.28754,0 -0.48522,-0.19408 -0.19409,-0.19409 -0.19409,-0.47803 0,-0.28395 0.19409,-0.47803 0.19768,-0.19409 0.48522,-0.19409 0.28754,0 0.48162,0.19409 0.19769,0.19408 0.19769,0.47803 0,0.28394 -0.19769,0.47803 -0.19408,0.19408 -0.48162,0.19408 z"
         id="text1-1-1"
         transform="matrix(1.0782186,0,-0.44117697,0.92745572,0,0)"
         aria-label="S.R.O." /></g></g></svg>
